<svg data-name="レイヤー 1" xmlns="http://www.w3.org/2000/svg" viewBox="0 0 27.64 28"><defs><clipPath id="a"><path fill="none" d="M178 128h46v46h-46z"/></clipPath><clipPath id="b"><path d="M201 160a8.62 8.62 0 006-2.18l-2.91-2.26a5.43 5.43 0 01-3.05.86 5.37 5.37 0 01-5-3.71h-3V155a9 9 0 008 5zm0 0" fill="none" clip-path="url(#a)" clip-rule="evenodd"/></clipPath><clipPath id="c"><path d="M177 127h48v48h-48zm0 0" fill="none" clip-path="url(#b)" clip-rule="evenodd"/></clipPath><clipPath id="d" transform="translate(-187 -137)"><path fill="none" clip-path="url(#c)" d="M178-618h612v792H178z"/></clipPath></defs><g clip-path="url(#d)"><path fill="#3e82f1" d="M9 7.36h18.64v18.46H9z"/></g><g clip-path="url(#d)"><path fill="#32a753" d="M.96 10.71h24V28h-24z"/></g><g clip-path="url(#d)"><path fill="#f9bb00" d="M0 4.96h13.96v18.08H0z"/></g><g clip-path="url(#d)"><path fill="#e74235" d="M.96 0h24.06v17.29H.96z"/></g></svg>